<?xml version="1.0" standalone="no"?>
<!DOCTYPE svg PUBLIC "-//W3C//DTD SVG 20010904//EN"
 "http://www.w3.org/TR/2001/REC-SVG-20010904/DTD/svg10.dtd">
<svg version="1.0" xmlns="http://www.w3.org/2000/svg"
 width="209.000000pt" height="108.000000pt" viewBox="0 0 209.000000 108.000000"
 preserveAspectRatio="xMidYMid meet">

<g transform="translate(0.000000,108.000000) scale(0.100000,-0.100000)"
fill="#000000" stroke="none">
<path d="M132 807 c-9 -11 -12 -72 -10 -227 3 -193 5 -214 21 -224 32 -19 47
16 47 111 l0 83 58 0 c66 0 135 27 152 61 37 67 30 127 -21 175 -29 28 -35 29
-133 32 -80 3 -105 1 -114 -11z m208 -77 c26 -26 25 -58 -2 -87 -18 -19 -32
-23 -85 -23 l-63 0 0 65 0 65 65 0 c52 0 69 -4 85 -20z"/>
<path d="M1571 806 c-8 -9 -11 -78 -9 -226 3 -193 5 -214 21 -224 32 -19 47
16 47 111 l0 83 100 0 100 0 0 -83 c0 -95 15 -130 47 -111 16 10 18 30 18 229
0 199 -2 219 -18 229 -32 19 -47 -16 -47 -111 l0 -83 -100 0 -100 0 0 81 c0
44 -5 89 -10 100 -12 22 -33 25 -49 5z"/>
<path d="M541 668 c-54 -29 -91 -91 -91 -152 1 -116 132 -202 231 -150 29 14
32 14 44 -3 11 -14 18 -16 32 -7 26 16 31 171 8 232 -35 90 -137 126 -224 80z
m140 -77 c23 -23 29 -38 29 -72 0 -91 -97 -133 -161 -70 -62 62 -20 171 66
171 27 0 44 -8 66 -29z"/>
<path d="M910 667 c-30 -16 -51 -37 -67 -67 -21 -39 -23 -56 -21 -139 3 -78 6
-96 21 -105 32 -20 47 16 47 117 0 85 1 90 29 118 22 21 39 29 66 29 78 0 98
-31 105 -159 4 -76 8 -96 23 -105 30 -18 47 17 47 98 0 88 -13 136 -47 177
-52 61 -130 75 -203 36z"/>
<path d="M1280 667 c-119 -63 -116 -238 6 -297 72 -35 147 -20 197 39 56 67
56 155 0 222 -52 61 -129 75 -203 36z m145 -71 c67 -67 27 -176 -65 -176 -33
0 -48 6 -71 29 -64 65 -20 171 71 171 30 0 47 -6 65 -24z"/>
</g>
</svg>
