<?xml version="1.0" standalone="no"?>
<!DOCTYPE svg PUBLIC "-//W3C//DTD SVG 20010904//EN"
 "http://www.w3.org/TR/2001/REC-SVG-20010904/DTD/svg10.dtd">
<svg version="1.0" xmlns="http://www.w3.org/2000/svg"
 width="1242.000000pt" height="2688.000000pt" viewBox="0 0 1242.000000 2688.000000"
 preserveAspectRatio="xMidYMid meet">

<g transform="translate(0.000000,2688.000000) scale(0.100000,-0.100000)"
fill="#000000" stroke="none">
<path d="M6458 22285 c-102 -28 -189 -110 -243 -230 -66 -144 -102 -326 -146
-740 -54 -513 -94 -727 -217 -1165 -10 -36 -28 -90 -39 -120 -12 -30 -38 -100
-58 -155 -36 -96 -81 -194 -95 -205 -3 -3 -7 -15 -7 -28 -2 -22 -29 -68 -67
-110 -11 -13 -30 -42 -41 -65 -30 -63 -72 -82 -170 -80 -44 0 -123 11 -175 23
-52 12 -156 30 -230 40 -74 11 -169 29 -210 40 -41 11 -93 20 -115 20 -22 0
-70 7 -107 14 -38 7 -68 12 -68 10 0 -1 15 -12 33 -24 l32 -21 -65 6 c-107 10
-283 35 -320 45 -20 5 -62 22 -95 38 -77 37 -94 41 -210 48 -53 3 -104 7 -113
9 -9 1 -78 8 -152 15 -74 6 -162 15 -194 20 -69 11 -79 8 -39 -14 l28 -15 -40
5 c-22 3 -60 9 -85 15 -40 8 -141 25 -210 35 -14 2 -59 11 -100 19 -41 9 -102
19 -135 22 l-60 5 27 -21 c15 -12 42 -28 60 -37 33 -15 32 -15 -32 -9 -77 7
-209 31 -265 50 -22 7 -85 18 -140 25 -55 6 -136 18 -180 26 -44 7 -98 16
-120 19 -22 3 -67 11 -100 19 -33 8 -61 13 -63 12 -6 -6 126 -65 193 -86 64
-21 103 -40 80 -40 -28 0 -240 42 -305 60 -72 20 -268 63 -455 100 -50 10
-117 26 -149 35 -32 9 -81 20 -109 25 -55 8 -234 47 -377 81 -47 12 -114 27
-150 35 -36 8 -83 21 -105 29 -36 14 -38 14 -21 0 11 -8 15 -15 10 -15 -19 0
-201 50 -289 79 l-90 30 65 -5 c61 -4 63 -4 35 9 -16 8 -48 17 -70 21 -22 4
-60 14 -85 23 -25 9 -60 16 -77 17 l-33 2 0 -1203 0 -1203 33 0 c88 0 243 42
345 93 152 77 217 129 592 473 139 128 425 343 535 401 22 12 59 31 83 43 l43
21 -17 -27 -18 -27 31 16 c76 40 199 77 252 77 l54 0 -21 -23 -22 -23 53 -18
c65 -23 74 -31 57 -51 -9 -11 -9 -15 -1 -15 7 0 9 -5 5 -11 -3 -6 8 -24 25
-40 30 -27 31 -30 16 -52 -14 -21 -14 -27 1 -57 14 -27 15 -37 5 -52 -8 -13
-10 -35 -6 -59 4 -25 3 -45 -5 -54 -6 -8 -11 -29 -10 -47 1 -18 1 -36 0 -40
-1 -5 -3 -12 -4 -17 0 -5 -4 -13 -8 -17 -5 -4 -8 -20 -8 -35 0 -15 -5 -40 -12
-56 -6 -15 -12 -30 -12 -33 -1 -3 -4 -9 -7 -15 -4 -5 -10 -28 -14 -50 -4 -22
-16 -58 -27 -80 -10 -22 -27 -65 -37 -97 -10 -31 -27 -69 -38 -85 -18 -26 -58
-107 -89 -181 -14 -31 -153 -246 -251 -386 -86 -124 -194 -247 -373 -426 -244
-244 -308 -297 -623 -514 -187 -128 -310 -190 -509 -259 -17 -6 -18 -162 -18
-3093 l0 -3087 98 7 c320 23 713 87 1211 197 595 133 1719 497 2476 804 1220
493 2473 1204 3498 1982 696 530 1316 1125 1803 1733 249 310 630 850 832
1178 145 235 374 581 404 612 47 48 113 103 133 112 15 6 34 1 74 -19 52 -27
62 -40 103 -125 16 -34 37 -196 50 -373 7 -113 11 -384 11 -730 -3 -924 -40
-1388 -158 -1950 -99 -471 -149 -638 -435 -1430 -292 -810 -394 -1129 -520
-1640 -135 -545 -194 -925 -221 -1420 -14 -258 2 -720 31 -910 20 -130 28
-456 16 -602 -3 -28 -12 -62 -20 -76 -9 -13 -14 -31 -10 -40 3 -10 -4 -22 -20
-33 -19 -12 -25 -22 -21 -35 5 -16 1 -19 -29 -19 -26 0 -36 -4 -36 -16 0 -13
-7 -15 -36 -9 -22 4 -40 2 -43 -3 -4 -7 -26 -3 -60 9 -30 10 -57 16 -62 13 -4
-2 -40 12 -80 31 -39 20 -73 34 -76 31 -3 -2 -55 26 -117 63 -61 37 -118 70
-127 74 -9 3 -88 55 -175 115 -88 60 -208 144 -269 186 -60 41 -162 109 -225
149 -63 41 -187 120 -275 177 -204 131 -449 277 -545 325 -41 21 -131 69 -200
108 -158 88 -560 288 -705 349 -312 133 -790 310 -953 353 -51 14 -172 48
-270 76 -227 65 -550 147 -627 159 -33 5 -114 20 -181 34 -424 88 -824 139
-1264 161 -513 26 -806 18 -1220 -30 -556 -64 -897 -143 -1405 -323 -110 -39
-235 -81 -277 -94 l-78 -22 0 -2711 0 -2711 33 -19 c56 -32 139 -99 272 -220
478 -431 813 -656 1262 -848 271 -116 529 -186 798 -218 148 -17 503 -6 642
20 419 79 762 265 1063 577 173 180 288 331 525 694 277 423 380 575 464 688
304 408 575 660 906 844 190 106 317 153 545 203 209 46 367 65 600 72 350 10
559 -15 1295 -157 534 -104 608 -113 815 -107 190 5 245 17 370 79 140 70 265
210 376 423 25 50 50 91 55 93 5 2 21 26 35 52 15 27 30 47 34 45 4 -3 20 11
35 31 15 19 30 33 33 30 3 -4 16 3 28 15 13 12 34 23 48 24 14 2 30 6 36 10
11 7 101 17 135 16 105 -5 258 -31 292 -49 10 -5 43 -13 73 -17 30 -4 80 -16
110 -27 161 -57 425 -99 620 -101 132 0 167 3 235 22 110 31 237 94 385 193
69 46 165 107 213 136 l87 53 0 2934 0 2934 -41 63 c-158 244 -254 644 -323
1338 -36 359 -49 687 -42 1035 20 978 17 1352 -14 1513 -5 28 -19 126 -30 219
-11 92 -25 191 -30 218 -6 28 -17 102 -26 165 -8 63 -24 178 -34 255 -20 146
-46 331 -80 569 -11 76 -27 198 -35 270 -8 72 -20 158 -25 191 -5 33 -28 184
-50 335 -22 151 -49 336 -60 410 -11 74 -25 167 -31 205 -6 39 -17 108 -24
155 -12 82 -27 177 -61 380 -9 52 -20 129 -25 170 -5 41 -20 138 -34 215 -14
77 -32 175 -40 217 -17 96 -53 270 -66 323 -17 67 -28 117 -43 185 -8 36 -21
92 -31 125 -9 33 -25 96 -36 140 -27 111 -47 152 -85 176 -19 12 -47 46 -69
84 -19 35 -39 66 -44 69 -5 3 -19 -8 -31 -24 -18 -23 -28 -28 -47 -24 -19 5
-32 -3 -71 -44 -26 -28 -56 -67 -67 -89 -11 -21 -26 -49 -35 -62 -8 -14 -27
-67 -42 -119 -30 -104 -64 -155 -152 -224 -28 -22 -58 -53 -68 -68 -17 -28
-29 -33 -123 -45 -27 -4 -58 -11 -67 -16 -12 -6 -35 -3 -72 10 -31 11 -64 17
-75 14 -13 -3 -57 15 -123 53 -57 31 -124 68 -149 80 -77 38 -333 246 -724
588 -212 186 -378 319 -520 417 -539 373 -1233 646 -1905 749 -142 22 -244 24
-312 5z m-5828 -2255 c18 -12 2 -12 -25 0 -13 6 -15 9 -5 9 8 0 22 -4 30 -9z"/>
<path d="M310 20144 c8 -3 29 -12 45 -19 17 -8 46 -16 65 -19 34 -5 34 -5 -10
15 -25 12 -61 23 -80 25 -19 2 -28 1 -20 -2z"/>
</g>
</svg>
