<?xml version="1.0" encoding="UTF-8"?>
<!DOCTYPE svg PUBLIC "-//W3C//DTD SVG 1.1//EN" "http://www.w3.org/Graphics/SVG/1.1/DTD/svg11.dtd">
<svg xmlns="http://www.w3.org/2000/svg" version="1.1" width="96px" height="96px" style="shape-rendering:geometricPrecision; text-rendering:geometricPrecision; image-rendering:optimizeQuality; fill-rule:evenodd; clip-rule:evenodd" xmlns:xlink="http://www.w3.org/1999/xlink">
<g><path style="opacity:0.97" fill="#fe5c5c" d="M 45.5,8.5 C 57.3816,11.2213 69.0483,14.7213 80.5,19C 83.2058,33.8874 81.0391,48.3874 74,62.5C 68.0139,72.8194 59.3473,79.8194 48,83.5C 28.4918,76.3111 17.4918,62.3111 15,41.5C 14.6645,37.3112 14.1645,33.1445 13.5,29C 14.2865,25.5418 14.6198,22.0418 14.5,18.5C 25.0752,15.6126 35.4086,12.2793 45.5,8.5 Z"/></g>
<g><path style="opacity:1" fill="#fffaf9" d="M 44.5,21.5 C 47.3646,21.0548 49.8646,21.7215 52,23.5C 52.499,27.8206 52.6657,32.1539 52.5,36.5C 57.1785,36.3342 61.8452,36.5008 66.5,37C 71.2327,39.9218 71.5661,43.2552 67.5,47C 62.5111,47.4993 57.5111,47.6659 52.5,47.5C 52.666,52.8437 52.4994,58.1771 52,63.5C 49,66.1667 46,66.1667 43,63.5C 42.5006,58.1771 42.334,52.8437 42.5,47.5C 37.8215,47.6658 33.1548,47.4992 28.5,47C 24.564,43.8411 24.564,40.5078 28.5,37C 32.8206,36.501 37.1539,36.3343 41.5,36.5C 41.3345,32.4862 41.5012,28.4862 42,24.5C 43.045,23.6266 43.8783,22.6266 44.5,21.5 Z"/></g>
</svg>
