<?xml version="1.0" standalone="no"?>
<!DOCTYPE svg PUBLIC "-//W3C//DTD SVG 20010904//EN"
 "http://www.w3.org/TR/2001/REC-SVG-20010904/DTD/svg10.dtd">
<svg version="1.0" xmlns="http://www.w3.org/2000/svg"
 width="500.000000pt" height="500.000000pt" viewBox="0 0 500.000000 500.000000"
 preserveAspectRatio="xMidYMid meet">

<g transform="translate(0.000000,500.000000) scale(0.100000,-0.100000)"
fill="#000000" stroke="none">
<path d="M2510 4469 c-19 -5 -41 -6 -48 -4 -8 3 -10 0 -6 -7 5 -7 0 -9 -14 -6
-12 3 -23 1 -26 -6 -3 -7 -8 -6 -15 4 -9 13 -11 13 -11 -1 0 -18 -44 -34 -62
-23 -7 5 -8 2 -3 -6 6 -10 3 -12 -13 -8 -12 4 -22 2 -22 -4 0 -6 -6 -8 -14 -5
-8 3 -17 1 -20 -6 -3 -9 -8 -8 -15 3 -9 13 -11 13 -11 -1 0 -18 -44 -34 -62
-23 -7 5 -8 2 -3 -6 6 -10 3 -12 -13 -8 -12 3 -23 1 -26 -6 -3 -7 -8 -6 -15 4
-9 13 -11 13 -11 -1 0 -18 -44 -34 -62 -23 -7 5 -8 2 -3 -6 6 -10 3 -12 -13
-8 -12 4 -22 2 -22 -4 0 -6 -6 -8 -14 -5 -8 3 -17 1 -20 -6 -3 -9 -8 -8 -15 3
-9 13 -11 13 -11 -1 0 -17 -44 -34 -60 -24 -6 4 -10 1 -10 -5 0 -7 -6 -10 -14
-7 -8 3 -17 1 -20 -6 -3 -9 -8 -8 -15 3 -9 13 -11 13 -11 -1 0 -18 -44 -34
-62 -23 -7 5 -8 2 -3 -6 6 -10 3 -12 -13 -8 -12 4 -22 2 -22 -4 0 -6 -6 -8
-14 -5 -8 3 -17 1 -20 -6 -3 -9 -8 -8 -15 3 -9 13 -11 13 -11 -1 0 -17 -44
-34 -60 -24 -6 4 -10 1 -10 -5 0 -7 -6 -10 -14 -7 -8 3 -17 1 -20 -6 -3 -9 -8
-8 -15 3 -9 13 -11 12 -11 -4 0 -12 -5 -16 -15 -12 -8 3 -15 0 -15 -5 0 -6 -9
-9 -20 -6 -13 3 -18 1 -13 -6 4 -6 -2 -8 -15 -5 -12 3 -23 1 -26 -6 -3 -7 -8
-6 -15 4 -9 13 -11 13 -11 -2 0 -21 -16 -24 -23 -5 -4 7 -6 6 -6 -4 -1 -17
-45 -34 -61 -24 -6 4 -10 1 -10 -5 0 -7 -6 -10 -14 -7 -8 3 -17 1 -20 -6 -3
-9 -8 -8 -15 3 -9 13 -11 12 -11 -4 0 -12 -5 -16 -15 -12 -8 3 -15 0 -15 -5 0
-6 -9 -9 -20 -6 -13 3 -18 1 -13 -6 4 -6 -2 -8 -15 -5 -12 3 -23 1 -26 -6 -3
-7 -8 -6 -15 4 -9 13 -11 13 -11 -2 0 -21 -16 -24 -23 -5 -4 7 -6 6 -6 -4 -1
-17 -45 -34 -61 -24 -6 4 -10 1 -10 -5 0 -7 -6 -10 -14 -7 -8 3 -17 1 -20 -6
-3 -9 -8 -8 -15 3 -9 13 -11 13 -11 -2 0 -21 -16 -24 -23 -5 -3 7 -6 4 -6 -7
-1 -13 -6 -17 -21 -13 -13 3 -18 1 -13 -6 4 -6 -1 -8 -13 -5 -17 4 -20 1 -16
-25 3 -19 1 -28 -6 -23 -5 3 -12 -1 -16 -9 -3 -8 -1 -15 4 -15 6 0 10 -18 10
-41 0 -22 -4 -38 -9 -35 -5 3 -12 -2 -16 -11 -3 -10 -1 -19 4 -21 6 -2 11 -28
11 -58 0 -31 -4 -53 -9 -50 -5 4 -13 -8 -16 -26 -5 -21 -4 -33 4 -36 14 -5 16
-312 1 -312 -11 0 -13 -30 -4 -54 3 -9 10 -13 15 -10 5 3 9 -22 9 -55 0 -34
-4 -61 -10 -61 -15 0 -12 -16 5 -34 16 -16 21 -86 5 -86 -5 0 -7 -7 -4 -15 4
-8 9 -13 13 -10 4 2 8 -11 9 -30 1 -22 -3 -35 -11 -35 -7 -1 -5 -6 5 -14 21
-15 24 -56 6 -56 -8 -1 -6 -6 5 -14 18 -14 24 -56 6 -56 -5 0 -7 -5 -4 -10 4
-6 11 -8 16 -5 5 4 9 -5 9 -19 0 -14 -5 -26 -11 -26 -5 0 -7 -5 -4 -10 4 -6
11 -8 16 -5 5 4 9 -3 9 -14 0 -12 -6 -21 -12 -21 -8 -1 -6 -6 4 -14 21 -15 24
-36 6 -36 -8 -1 -6 -6 5 -14 20 -15 22 -32 5 -39 -8 -3 -5 -6 6 -6 14 -1 17
-6 12 -26 -4 -16 -2 -25 5 -25 6 0 9 -9 6 -20 -3 -11 -1 -20 5 -20 6 0 8 -9 5
-20 -3 -10 0 -21 7 -24 7 -3 6 -8 -4 -15 -13 -9 -12 -11 4 -11 13 0 17 -5 13
-20 -3 -10 0 -21 7 -24 7 -3 6 -8 -4 -15 -13 -9 -12 -11 4 -11 13 0 17 -5 13
-20 -3 -11 -1 -20 5 -20 6 0 8 -7 4 -15 -3 -8 -1 -15 5 -15 6 0 9 -7 5 -15 -3
-8 -1 -15 5 -15 6 0 9 -7 5 -15 -3 -8 -1 -15 5 -15 6 0 8 -7 5 -16 -3 -8 -2
-13 3 -10 5 3 11 -4 14 -16 4 -13 1 -26 -6 -30 -8 -5 -6 -8 7 -8 12 0 16 -5
12 -16 -3 -8 -2 -12 4 -9 9 6 14 -10 13 -42 -1 -7 3 -10 8 -7 5 3 9 1 9 -5 0
-5 -6 -12 -12 -14 -8 -4 -7 -6 3 -6 18 -1 33 -27 23 -42 -3 -5 1 -9 8 -9 9 0
9 -3 -2 -10 -13 -9 -13 -10 0 -10 21 0 104 -167 87 -174 -7 -2 -4 -5 5 -5 23
-1 53 -57 35 -64 -7 -3 -5 -6 5 -6 21 -1 46 -41 26 -42 -7 0 -2 -5 12 -10 20
-8 22 -12 10 -19 -13 -8 -13 -10 1 -10 22 0 53 -47 36 -53 -7 -3 -5 -6 5 -6
19 -1 85 -88 80 -105 -2 -6 -1 -8 3 -4 4 4 21 -10 38 -30 17 -20 48 -56 70
-78 21 -23 39 -46 39 -50 1 -13 63 -84 73 -84 5 0 -9 19 -30 42 -22 24 -4 9
40 -31 44 -41 93 -88 109 -105 16 -17 25 -25 21 -17 -5 9 2 7 17 -5 14 -10 24
-22 21 -27 -2 -4 -1 -7 4 -6 15 4 43 -13 37 -22 -3 -5 -2 -9 3 -8 20 3 34 -2
28 -11 -4 -6 -3 -10 2 -9 20 3 34 -2 28 -11 -4 -6 -3 -10 2 -9 22 4 34 -2 27
-13 -4 -7 -4 -10 1 -6 12 11 45 -10 46 -30 0 -10 3 -12 6 -5 7 18 63 -12 64
-35 0 -9 3 -12 5 -6 7 16 174 -66 175 -86 0 -10 2 -11 6 -2 2 6 9 12 14 12 6
0 7 -5 3 -12 -4 -6 -3 -8 4 -5 16 11 42 -3 42 -22 0 -12 2 -13 8 -3 9 13 42 7
42 -8 0 -4 6 -8 13 -7 32 1 48 -4 42 -13 -3 -6 1 -7 9 -4 9 3 16 1 16 -5 0 -6
7 -8 15 -5 8 4 15 1 15 -6 0 -6 5 -8 11 -4 6 3 14 2 18 -4 4 -6 27 -3 66 9 45
14 61 15 67 6 5 -8 8 -6 8 7 0 12 5 16 15 12 8 -3 15 -1 15 3 0 15 33 22 42 9
6 -10 8 -9 8 3 0 22 31 34 42 17 6 -10 8 -9 8 3 0 18 46 42 62 33 7 -5 8 -2 3
6 -6 10 -4 12 8 7 10 -4 17 -1 17 6 0 8 4 6 10 -3 8 -12 10 -12 10 5 0 17 2
17 10 5 8 -12 10 -12 10 5 0 17 2 17 10 5 8 -12 10 -12 10 5 0 17 2 17 10 5 8
-13 10 -12 10 3 0 10 5 15 10 12 6 -3 10 -2 10 4 0 6 13 17 29 26 23 11 31 12
34 2 3 -7 6 -5 6 5 1 19 54 51 66 40 5 -4 5 -1 1 6 -7 11 5 17 27 13 5 -1 6 3
2 9 -6 9 8 14 28 11 5 -1 6 3 2 9 -6 10 9 15 30 10 5 -1 7 2 3 6 -4 4 0 13 10
20 13 9 19 9 24 1 5 -8 8 -7 8 4 0 23 26 44 33 27 4 -9 6 -8 6 3 1 9 11 24 23
35 12 10 18 13 14 6 -4 -7 51 45 122 115 72 70 128 125 126 121 -3 -4 2 -5 10
-2 9 3 13 10 10 15 -7 12 101 150 111 141 4 -4 6 -2 4 3 -4 17 12 45 22 39 5
-3 9 -2 8 3 -3 20 2 34 11 28 6 -4 10 -3 9 2 -4 21 2 34 13 27 6 -4 9 -3 5 2
-7 11 37 86 46 79 4 -3 5 -2 2 1 -6 10 24 64 36 64 6 0 7 5 4 10 -3 6 2 10 12
11 10 0 13 3 6 6 -9 3 -2 26 23 76 20 40 40 74 45 75 5 2 7 8 3 13 -3 5 0 9 6
9 6 0 9 4 5 9 -6 11 15 61 26 61 5 0 6 6 3 14 -3 7 1 20 9 27 7 8 12 19 10 25
-2 7 2 18 10 25 7 8 12 20 9 27 -2 6 1 12 7 12 6 0 8 7 5 15 -4 10 0 15 12 16
11 0 14 3 7 6 -19 7 -16 23 5 24 10 0 12 3 5 6 -19 7 -16 23 5 24 10 0 12 3 5
6 -19 7 -16 23 5 23 15 0 15 2 2 11 -10 7 -11 12 -4 15 7 3 9 14 6 26 -3 13
-1 19 5 15 7 -5 9 0 6 13 -3 11 -1 20 5 20 6 0 8 9 5 20 -4 15 0 20 13 21 11
0 14 3 7 6 -7 2 -13 11 -13 19 0 9 4 13 9 9 5 -3 12 -1 16 5 3 5 1 10 -4 10
-6 0 -11 7 -11 16 0 8 4 13 9 9 5 -3 12 -1 16 5 3 5 1 10 -4 10 -19 0 -12 30
7 31 10 0 12 3 5 6 -15 6 -17 33 -3 33 6 0 8 11 4 25 -3 14 -2 25 4 25 6 0 8
9 5 20 -4 13 1 26 13 35 11 8 14 14 7 15 -14 0 -18 40 -4 40 4 0 6 11 3 25 -3
18 1 30 14 40 11 8 14 14 7 15 -19 0 -16 41 5 56 10 8 12 13 5 14 -8 0 -13 13
-13 31 0 16 4 28 9 25 5 -3 11 1 15 9 3 8 1 15 -4 15 -17 0 -11 62 8 77 12 10
14 16 5 19 -8 4 -13 25 -13 55 0 28 4 48 9 44 5 -3 13 4 16 16 4 12 2 24 -4
28 -13 8 -14 493 -1 501 5 3 7 16 3 28 -3 12 -9 19 -14 16 -13 -8 -11 80 3 94
9 9 7 13 -5 18 -18 7 -25 74 -7 74 5 0 7 7 4 15 -4 8 -10 13 -14 10 -5 -3 -15
1 -22 8 -7 8 -21 12 -32 9 -12 -3 -17 -1 -13 5 5 7 0 9 -13 6 -15 -4 -20 0
-21 13 0 11 -3 14 -6 7 -7 -19 -23 -16 -23 5 0 15 -2 15 -11 2 -7 -11 -12 -12
-15 -3 -3 7 -12 9 -20 6 -8 -3 -14 -1 -14 5 0 6 -10 8 -22 4 -13 -3 -19 -1
-15 5 5 7 0 9 -13 6 -15 -4 -20 0 -21 13 0 11 -3 14 -6 7 -7 -19 -23 -16 -23
5 0 15 -2 15 -11 2 -7 -10 -12 -11 -15 -4 -3 7 -14 9 -26 6 -16 -4 -19 -2 -13
8 5 8 4 11 -3 6 -18 -11 -62 5 -62 23 0 14 -2 14 -11 1 -7 -11 -12 -12 -15 -3
-3 7 -12 9 -20 6 -8 -3 -14 -1 -14 5 0 6 -10 8 -22 4 -13 -3 -19 -1 -15 5 5 7
0 9 -13 6 -15 -4 -20 0 -21 13 0 11 -3 14 -6 7 -7 -19 -23 -16 -23 5 0 15 -2
15 -11 2 -7 -11 -12 -12 -15 -3 -3 7 -12 9 -20 6 -8 -3 -14 0 -14 7 0 6 -4 9
-10 5 -16 -10 -60 7 -61 24 0 10 -2 11 -6 4 -7 -19 -23 -16 -23 5 0 15 -2 15
-11 2 -7 -10 -12 -11 -15 -4 -3 7 -14 9 -26 6 -16 -4 -19 -2 -13 8 5 8 4 11
-3 6 -18 -11 -62 5 -62 23 0 14 -2 14 -11 1 -7 -11 -12 -12 -15 -3 -3 7 -12 9
-20 6 -8 -3 -14 -1 -14 5 0 6 -10 8 -22 4 -13 -3 -19 -1 -15 5 5 7 0 9 -13 6
-15 -4 -20 0 -21 13 0 11 -3 14 -6 7 -7 -19 -23 -16 -23 5 0 15 -2 15 -11 2
-7 -10 -12 -11 -15 -4 -3 7 -14 9 -26 6 -16 -4 -19 -2 -13 8 5 8 4 11 -3 6
-18 -11 -62 5 -62 23 0 14 -2 14 -11 1 -7 -11 -12 -12 -15 -3 -3 7 -12 9 -20
6 -8 -3 -14 -1 -14 5 0 6 -10 8 -22 4 -16 -4 -19 -2 -13 8 5 8 4 11 -3 6 -18
-11 -62 5 -62 23 0 14 -2 14 -11 1 -7 -11 -12 -12 -15 -3 -3 7 -12 9 -20 6 -8
-3 -14 0 -14 7 0 6 -4 9 -10 5 -16 -10 -60 7 -61 24 0 10 -2 11 -6 4 -7 -19
-23 -16 -23 5 0 15 -2 15 -11 2 -7 -10 -12 -11 -15 -4 -3 7 -14 9 -26 6 -16
-4 -19 -2 -13 8 5 8 4 11 -3 6 -18 -11 -62 5 -62 23 0 14 -2 14 -10 1 -7 -10
-12 -11 -17 -4 -5 6 -21 7 -43 3z m-83 -575 c-3 -3 -12 -4 -19 -1 -8 3 -5 6 6
6 11 1 17 -2 13 -5z m118 -4 c-18 -8 -18 -9 -2 -9 25 -1 97 -38 133 -70 16
-14 10 -6 -15 18 -25 24 -37 39 -26 33 11 -6 38 -29 60 -53 22 -23 34 -38 26
-34 -7 4 -12 4 -9 -1 56 -117 52 -84 56 -411 l4 -303 332 0 c262 0 343 -3 381
-15 27 -8 53 -11 58 -8 6 4 7 1 2 -7 -6 -10 -4 -12 9 -7 9 4 14 3 11 -2 -7
-12 35 -42 48 -34 6 3 7 2 4 -4 -9 -14 22 -55 35 -47 6 4 8 2 4 -4 -7 -12 13
-64 24 -57 3 2 5 -38 3 -88 -4 -118 -6 -136 -17 -129 -5 3 -7 -2 -3 -11 4 -10
2 -16 -6 -14 -7 1 -12 -7 -12 -18 -1 -11 -6 -19 -12 -18 -6 1 -19 -7 -28 -17
-10 -11 -15 -20 -10 -20 4 0 2 -6 -5 -14 -6 -8 -19 -12 -27 -9 -12 5 -14 3 -8
-7 5 -8 4 -11 -2 -7 -6 4 -27 0 -48 -9 -31 -12 -91 -15 -371 -14 l-334 0 -2
-127 -2 -128 -6 130 c-4 83 -7 -6 -7 -245 0 -262 -4 -384 -12 -404 -7 -16 -10
-35 -7 -43 3 -7 0 -12 -6 -10 -6 1 -13 -4 -16 -12 -3 -10 0 -11 9 -5 12 7 12
5 0 -9 -7 -9 -17 -15 -21 -12 -4 2 -20 -9 -36 -26 -52 -55 -100 -74 -189 -74
-69 0 -87 4 -129 28 -53 30 -60 32 -51 17 12 -20 -2 -9 -36 27 -18 20 -28 32
-20 28 7 -4 12 -4 9 1 -2 5 -15 32 -28 59 -25 49 -25 54 -31 425 -4 206 -7
376 -8 378 0 1 -149 2 -330 2 -275 -1 -335 2 -366 14 -21 9 -42 13 -48 9 -6
-4 -7 -1 -3 6 6 8 2 11 -10 9 -11 -2 -18 2 -17 8 2 11 -43 59 -55 59 -4 0 -7
7 -7 15 0 8 -5 14 -12 13 -8 -2 -10 4 -6 14 4 9 2 14 -3 11 -11 -7 -13 11 -17
129 -2 50 0 90 3 88 11 -7 31 45 24 57 -4 6 -2 8 4 4 13 -8 44 33 35 47 -3 6
-2 7 3 4 13 -8 39 9 39 25 0 7 9 12 19 10 12 -2 16 1 10 9 -4 7 -3 10 3 6 5
-3 31 0 58 8 38 12 116 15 362 15 l313 0 -7 283 c-5 258 -4 287 13 342 10 33
18 66 19 72 0 7 3 12 7 10 11 -3 77 65 75 77 -1 6 3 10 10 9 6 -2 28 4 49 13
20 9 64 19 98 24 82 10 95 10 71 0z m-156 -4 c-2 -2 -15 -9 -29 -15 -24 -11
-24 -11 -6 3 16 13 49 24 35 12z m-89 -49 c0 -2 -12 -14 -27 -28 l-28 -24 24
28 c23 25 31 32 31 24z m455 -108 c9 -17 15 -33 13 -35 -3 -2 -12 12 -21 31
-21 43 -13 47 8 4z m-542 -19 c-9 -22 -18 -38 -20 -36 -5 5 24 76 31 76 2 0
-3 -18 -11 -40z m-26 -247 c-2 -37 -3 -9 -3 62 0 72 1 102 3 68 2 -34 2 -93 0
-130z m600 -270 c-1 -49 -3 -9 -3 87 0 96 2 136 3 88 2 -49 2 -127 0 -175z
m-739 -120 c-87 -2 -229 -2 -315 0 -87 1 -16 3 157 3 173 0 244 -2 158 -3z
m1225 0 c-89 -2 -237 -2 -330 0 -92 1 -19 3 162 3 182 0 257 -2 168 -3z
m-1956 -305 c-3 -8 -6 -5 -6 6 -1 11 2 17 5 13 3 -3 4 -12 1 -19z m890 -930
c-2 -35 -3 -7 -3 62 0 69 1 97 3 63 2 -35 2 -91 0 -125z m37 -155 c9 -18 14
-33 12 -33 -6 0 -36 55 -36 66 0 11 5 3 24 -33z m486 -66 c0 -2 -10 -12 -22
-23 l-23 -19 19 23 c18 21 26 27 26 19z m-50 -42 c0 -7 -63 -45 -75 -45 -5 0
8 11 30 24 47 28 45 27 45 21z m-300 -31 c0 -2 -9 0 -20 6 -11 6 -20 13 -20
16 0 2 9 0 20 -6 11 -6 20 -13 20 -16z m153 -31 c-13 -2 -35 -2 -50 0 -16 2
-5 4 22 4 28 0 40 -2 28 -4z"/>
<path d="M2295 1610 c10 -11 20 -20 23 -20 3 0 -3 9 -13 20 -10 11 -20 20 -23
20 -3 0 3 -9 13 -20z"/>
<path d="M1440 1390 c0 -5 5 -10 11 -10 5 0 7 5 4 10 -3 6 -8 10 -11 10 -2 0
-4 -4 -4 -10z"/>
<path d="M1515 1300 c3 -5 11 -10 16 -10 6 0 7 5 4 10 -3 6 -11 10 -16 10 -6
0 -7 -4 -4 -10z"/>
<path d="M3360 1165 c-7 -9 -8 -15 -2 -15 5 0 12 7 16 15 3 8 4 15 2 15 -2 0
-9 -7 -16 -15z"/>
</g>
</svg>
