<?xml version="1.0" encoding="UTF-8"?>
<!DOCTYPE svg PUBLIC "-//W3C//DTD SVG 1.1//EN" "http://www.w3.org/Graphics/SVG/1.1/DTD/svg11.dtd">
<svg xmlns="http://www.w3.org/2000/svg" version="1.1" width="48px" height="48px" style="shape-rendering:geometricPrecision; text-rendering:geometricPrecision; image-rendering:optimizeQuality; fill-rule:evenodd; clip-rule:evenodd" xmlns:xlink="http://www.w3.org/1999/xlink">
<g><path style="opacity:0.939" fill="#fe5d5d" d="M 22.5,3.5 C 28.5007,5.16694 34.5007,6.83361 40.5,8.5C 42.0923,19.3099 39.4256,28.8099 32.5,37C 29.7737,39.0298 26.7737,40.5298 23.5,41.5C 13.7292,37.8919 8.22924,30.8919 7,20.5C 6.50115,16.5138 6.33449,12.5138 6.5,8.5C 12.1198,7.43401 17.4532,5.76734 22.5,3.5 Z"/></g>
<g><path style="opacity:1" fill="#fff7f6" d="M 25.5,11.5 C 25.5,13.8333 25.5,16.1667 25.5,18.5C 28.1667,18.5 30.8333,18.5 33.5,18.5C 34.8009,19.8845 34.8009,21.3845 33.5,23C 31.1902,23.4966 28.8568,23.6633 26.5,23.5C 26.6641,26.1873 26.4974,28.854 26,31.5C 24.3333,32.8333 22.6667,32.8333 21,31.5C 20.5026,28.854 20.3359,26.1873 20.5,23.5C 18.1432,23.6633 15.8098,23.4966 13.5,23C 12.1667,21.6667 12.1667,20.3333 13.5,19C 15.8098,18.5034 18.1432,18.3367 20.5,18.5C 20.3367,16.1432 20.5034,13.8098 21,11.5C 22.6155,10.1991 24.1155,10.1991 25.5,11.5 Z"/></g>
<g><path style="opacity:1" fill="#ff9594" d="M 25.5,11.5 C 26.4614,13.2646 26.7947,15.2646 26.5,17.5C 29.0593,17.1984 31.3926,17.5318 33.5,18.5C 30.8333,18.5 28.1667,18.5 25.5,18.5C 25.5,16.1667 25.5,13.8333 25.5,11.5 Z"/></g>
</svg>
